PERFORMER "Mark Hancock"
TITLE "English Pronunciation In Use - CD3"
FILE "Mark.Hancock_2003_English.Pronunciation.In.Use_CD3.mp3" MP3
  TRACK 01 AUDIO
    TITLE "C1"
    INDEX 01 00:00:00
  TRACK 02 AUDIO
    TITLE "C2"
    INDEX 01 00:39:25
  TRACK 03 AUDIO
    TITLE "C3"
    INDEX 01 00:47:65
  TRACK 04 AUDIO
    TITLE "C4"
    INDEX 01 01:32:46
  TRACK 05 AUDIO
    TITLE "C5"
    INDEX 01 02:27:27
  TRACK 06 AUDIO
    TITLE "C6"
    INDEX 01 02:57:45
  TRACK 07 AUDIO
    TITLE "C7"
    INDEX 01 03:26:15
  TRACK 08 AUDIO
    TITLE "C8"
    INDEX 01 04:10:53
  TRACK 09 AUDIO
    TITLE "C9"
    INDEX 01 05:10:23
  TRACK 10 AUDIO
    TITLE "C10"
    INDEX 01 05:44:20
  TRACK 11 AUDIO
    TITLE "C11"
    INDEX 01 06:44:45
  TRACK 12 AUDIO
    TITLE "C12"
    INDEX 01 07:34:05
  TRACK 13 AUDIO
    TITLE "C13 a-b"
    INDEX 01 07:51:01
  TRACK 14 AUDIO
    TITLE "C14"
    INDEX 01 08:15:56
  TRACK 15 AUDIO
    TITLE "C15"
    INDEX 01 09:01:44
  TRACK 16 AUDIO
    TITLE "C16"
    INDEX 01 09:46:25
  TRACK 17 AUDIO
    TITLE "C17"
    INDEX 01 10:18:74
  TRACK 18 AUDIO
    TITLE "C18"
    INDEX 01 10:31:23
  TRACK 19 AUDIO
    TITLE "C19"
    INDEX 01 11:31:70
  TRACK 20 AUDIO
    TITLE "C20"
    INDEX 01 12:49:15
  TRACK 21 AUDIO
    TITLE "C21"
    INDEX 01 13:43:10
  TRACK 22 AUDIO
    TITLE "C22"
    INDEX 01 14:14:30
  TRACK 23 AUDIO
    TITLE "C23"
    INDEX 01 15:32:02
  TRACK 24 AUDIO
    TITLE "C24"
    INDEX 01 17:02:15
  TRACK 25 AUDIO
    TITLE "C25"
    INDEX 01 17:35:22
  TRACK 26 AUDIO
    TITLE "C26"
    INDEX 01 18:38:42
  TRACK 27 AUDIO
    TITLE "C27"
    INDEX 01 19:17:67
  TRACK 28 AUDIO
    TITLE "C28"
    INDEX 01 19:35:35
  TRACK 29 AUDIO
    TITLE "C29"
    INDEX 01 20:17:35
  TRACK 30 AUDIO
    TITLE "C30"
    INDEX 01 20:56:66
  TRACK 31 AUDIO
    TITLE "C31"
    INDEX 01 21:39:22
  TRACK 32 AUDIO
    TITLE "C32"
    INDEX 01 22:06:22
  TRACK 33 AUDIO
    TITLE "C33"
    INDEX 01 23:13:02
  TRACK 34 AUDIO
    TITLE "C34"
    INDEX 01 24:05:63
  TRACK 35 AUDIO
    TITLE "C35"
    INDEX 01 24:34:74
  TRACK 36 AUDIO
    TITLE "C36"
    INDEX 01 24:59:38
  TRACK 37 AUDIO
    TITLE "C37"
    INDEX 01 25:24:71
  TRACK 38 AUDIO
    TITLE "C38"
    INDEX 01 26:49:28
  TRACK 39 AUDIO
    TITLE "C39"
    INDEX 01 27:23:60
  TRACK 40 AUDIO
    TITLE "C40"
    INDEX 01 27:53:47
  TRACK 41 AUDIO
    TITLE "C41"
    INDEX 01 28:43:64
  TRACK 42 AUDIO
    TITLE "C42"
    INDEX 01 29:12:55
  TRACK 43 AUDIO
    TITLE "C43"
    INDEX 01 29:44:68
  TRACK 44 AUDIO
    TITLE "C44"
    INDEX 01 30:11:33
  TRACK 45 AUDIO
    TITLE "C45"
    INDEX 01 30:25:74
  TRACK 46 AUDIO
    TITLE "C46"
    INDEX 01 30:48:59
  TRACK 47 AUDIO
    TITLE "C47"
    INDEX 01 32:08:26
  TRACK 48 AUDIO
    TITLE "C48"
    INDEX 01 32:41:23
  TRACK 49 AUDIO
    TITLE "C49"
    INDEX 01 32:55:29
  TRACK 50 AUDIO
    TITLE "C50"
    INDEX 01 33:13:62
  TRACK 51 AUDIO
    TITLE "C51"
    INDEX 01 33:53:49
  TRACK 52 AUDIO
    TITLE "C52"
    INDEX 01 34:40:62
  TRACK 53 AUDIO
    TITLE "C53"
    INDEX 01 34:56:72
  TRACK 54 AUDIO
    TITLE "C54"
    INDEX 01 35:28:05
  TRACK 55 AUDIO
    TITLE "C55"
    INDEX 01 35:54:06
  TRACK 56 AUDIO
    TITLE "C56"
    INDEX 01 36:42:54
  TRACK 57 AUDIO
    TITLE "C57"
    INDEX 01 37:09:41
  TRACK 58 AUDIO
    TITLE "C58"
    INDEX 01 37:46:73
  TRACK 59 AUDIO
    TITLE "C59"
    INDEX 01 38:22:35
  TRACK 60 AUDIO
    TITLE "C60"
    INDEX 01 39:07:22
  TRACK 61 AUDIO
    TITLE "C61"
    INDEX 01 39:56:67
  TRACK 62 AUDIO
    TITLE "C62"
    INDEX 01 41:13:12
  TRACK 63 AUDIO
    TITLE "C63"
    INDEX 01 41:24:56
  TRACK 64 AUDIO
    TITLE "C64"
    INDEX 01 41:49:16
  TRACK 65 AUDIO
    TITLE "C65"
    INDEX 01 42:20:20
  TRACK 66 AUDIO
    TITLE "C66"
    INDEX 01 43:12:16
  TRACK 67 AUDIO
    TITLE "C67"
    INDEX 01 43:38:19
  TRACK 68 AUDIO
    TITLE "C68"
    INDEX 01 43:52:74
  TRACK 69 AUDIO
    TITLE "C69"
    INDEX 01 44:41:37
  TRACK 70 AUDIO
    TITLE "C70"
    INDEX 01 45:08:28
  TRACK 71 AUDIO
    TITLE "C71"
    INDEX 01 45:53:24
  TRACK 72 AUDIO
    TITLE "C72"
    INDEX 01 46:34:42
  TRACK 73 AUDIO
    TITLE "C73"
    INDEX 01 47:02:10
  TRACK 74 AUDIO
    TITLE "C74"
    INDEX 01 47:50:26
  TRACK 75 AUDIO
    TITLE "C75"
    INDEX 01 48:28:63
  TRACK 76 AUDIO
    TITLE "C76"
    INDEX 01 49:16:54
  TRACK 77 AUDIO
    TITLE "C77"
    INDEX 01 50:17:36
  TRACK 78 AUDIO
    TITLE "C78"
    INDEX 01 50:34:73
  TRACK 79 AUDIO
    TITLE "C79"
    INDEX 01 51:09:73
  TRACK 80 AUDIO
    TITLE "C80"
    INDEX 01 52:04:66
  TRACK 81 AUDIO
    TITLE "C81"
    INDEX 01 53:25:21
  TRACK 82 AUDIO
    TITLE "C82"
    INDEX 01 53:47:69
  TRACK 83 AUDIO
    TITLE "C83"
    INDEX 01 54:37:14
  TRACK 84 AUDIO
    TITLE "C84"
    INDEX 01 54:53:36
  TRACK 85 AUDIO
    TITLE "C85"
    INDEX 01 55:36:65
  TRACK 86 AUDIO
    TITLE "C86"
    INDEX 01 56:16:46
  TRACK 87 AUDIO
    TITLE "C87"
    INDEX 01 56:54:21
  TRACK 88 AUDIO
    TITLE "C88"
    INDEX 01 57:13:24
  TRACK 89 AUDIO
    TITLE "C89"
    INDEX 01 57:29:17
  TRACK 90 AUDIO
    TITLE "C90"
    INDEX 01 57:43:09
  TRACK 91 AUDIO
    TITLE "C91"
    INDEX 01 58:02:00
  TRACK 92 AUDIO
    TITLE "C92"
    INDEX 01 58:49:38
  TRACK 93 AUDIO
    TITLE "C93"
    INDEX 01 59:39:30
  TRACK 94 AUDIO
    TITLE "C94"
    INDEX 01 60:48:29
  TRACK 95 AUDIO
    TITLE "C95"
    INDEX 01 61:15:27
  TRACK 96 AUDIO
    TITLE "C96"
    INDEX 01 61:51:20
  TRACK 97 AUDIO
    TITLE "C97"
    INDEX 01 62:07:07
  TRACK 98 AUDIO
    TITLE "C98"
    INDEX 01 62:33:04
  TRACK 99 AUDIO
    TITLE "C99"
    INDEX 01 63:17:03
